<?xml version="1.0" encoding="UTF-8"?>
<svg id="Layer_1" data-name="Layer 1" xmlns="http://www.w3.org/2000/svg" viewBox="0 0 600 600">
  <defs>
    <style>
      .cls-1 {
        fill: #fff;
      }
    </style>
  </defs>
  <path class="cls-1" d="M488.83,281.87c-2.47-2.43-5.67-3.76-9.05-3.76h-126.91c-.48,0-.95.07-1.43.13-.78-.09-1.59-.14-2.39-.14-6.34,0-12.17,2.71-16.29,7.44-18.58-9.94-30.47-29.53-30.47-50.67,0-31.67,25.77-57.43,57.43-57.43,1.87,0,4.28.18,7.16.55,4.15,5.38,10.57,8.69,17.59,8.69,1.88,0,3.72-.26,5.52-.73l10.14,23.88c1.92,4.54,6.36,7.27,11,7.27.73,0,1.46-.09,2.19-.22l5.67,13.37c.34.8,1,1.44,1.8,1.77.41.16.82.24,1.24.24s.88-.09,1.29-.26l28.27-12c1.68-.71,2.47-2.65,1.76-4.33l-5.67-13.36c4.47-3.16,6.31-9.12,4.08-14.38l-25.58-60.26c-1.44-3.39-4.3-5.89-7.92-6.86-2.64-.71-5.45-.39-7.96.68l-3.65,1.55-13.5-31.8,3.22-1.37c1.68-.71,2.47-2.65,1.75-4.33l-6.17-14.53c-.34-.81-.99-1.45-1.8-1.78-.81-.33-1.72-.32-2.53.02l-28.27,12c-.81.34-1.45.99-1.77,1.81-.33.81-.32,1.72.02,2.53l6.17,14.54c.53,1.26,1.76,2.02,3.04,2.02.44,0,.87-.09,1.29-.26l3.22-1.37,13.5,31.8-3.92,1.67c-4.56,1.93-7.31,6.34-7.26,11.07-1.23.68-2.39,1.47-3.46,2.36-3.17-.25-7.13-.49-10.44-.49-48.52,0-88,39.46-88,87.97,0,30.85,16.19,59.31,42.45,75.24l-22.56,30.01h-3.5c-7.53,0-13.63,6.1-13.63,13.63v9.26c0,7.53,6.1,13.63,13.63,13.63h169.77c10.08,0,18.26-8.17,18.26-18.26h0c0-10.09-8.17-18.26-18.26-18.26h-51.41l-27.42-36.47h100.71c7.04,0,12.77-5.73,12.77-12.79,0-3.37-1.32-6.57-3.73-9v-.02ZM369.99,158.61c.81-2,2.02-3.77,3.5-5.25.02-.01.03-.02.05-.03,1.38-1.36,3-2.47,4.83-3.25,1.95-.82,4-1.24,6.1-1.24,6.29,0,11.94,3.74,14.39,9.52,1.64,3.84,1.67,8.09.11,11.96-1.56,3.87-4.54,6.89-8.37,8.52h-.03l-.02.02c-1.94.82-3.99,1.24-6.06,1.24-6.29,0-11.94-3.74-14.4-9.53-1.63-3.84-1.67-8.09-.1-11.96Z"/>
  <path class="cls-1" d="M460.19,492.09h-208.54c-53.95,0-105.39-22.46-139.96-61.94-33.11-37.81-52.7-84.64-52.7-135.36,0-119.95,109.61-218.2,248.53-226.67-5.89-.39-11.84-.6-17.83-.6-139.15,0-251.95,107.5-251.95,240.12,0,74.13,35.25,140.41,90.64,184.46.21.17.43.34.65.51,32.74,25.86,74.01,39.87,116.53,39.87h316.7v-40.38h-102.07Z"/>
  <path class="cls-1" d="M441.27,419.71h-161.36c-42.01,0-82.09-16.46-108.92-45.38-25.46-27.44-40.5-61.37-40.5-98.1,0-87.24,84.9-158.7,192.52-164.86-4.56-.29-9.17-.43-13.81-.43-107.79,0-195.17,78.19-195.17,174.63,0,53.91,27.31,102.12,70.22,134.15.17.12.33.25.5.37,25.39,18.83,57.43,29,90.41,29h245.19v-29.37h-79.08Z"/>
</svg>