<?xml version="1.0" encoding="UTF-8"?>
<svg id="Layer_1" xmlns="http://www.w3.org/2000/svg" version="1.1" viewBox="0 0 1667.07 464.96">
  <!-- Generator: Adobe Illustrator 29.5.1, SVG Export Plug-In . SVG Version: 2.1.0 Build 141)  -->
  <defs>
    <style>
      .st0 {
        fill: #fff;
      }

      .st1 {
        fill: #fff;
      }

      .st2 {
        fill: #fff;
      }
    </style>
  </defs>
  <g>
    <path class="st0" d="M451.09,214.35c-2.47-2.43-5.67-3.76-9.05-3.76h-126.91c-.48,0-.95.07-1.43.13-.78-.09-1.59-.14-2.39-.14-6.34,0-12.17,2.71-16.29,7.44-18.58-9.94-30.47-29.53-30.47-50.67,0-31.67,25.77-57.43,57.43-57.43,1.87,0,4.28.18,7.16.55,4.15,5.38,10.57,8.69,17.59,8.69,1.88,0,3.72-.26,5.52-.73l10.14,23.88c1.92,4.54,6.36,7.27,11,7.27.73,0,1.46-.09,2.19-.22l5.67,13.37c.34.8,1,1.44,1.8,1.77.41.16.82.24,1.24.24s.88-.09,1.29-.26l28.27-12c1.68-.71,2.47-2.65,1.76-4.33l-5.67-13.36c4.47-3.16,6.31-9.12,4.08-14.38l-25.58-60.26c-1.44-3.39-4.3-5.89-7.92-6.86-2.64-.71-5.45-.39-7.96.68l-3.65,1.55-13.5-31.8,3.22-1.37c1.68-.71,2.47-2.65,1.75-4.33l-6.17-14.53c-.34-.81-.99-1.45-1.8-1.78-.81-.33-1.72-.32-2.53.02l-28.27,12c-.81.34-1.45.99-1.77,1.81-.33.81-.32,1.72.02,2.53l6.17,14.54c.53,1.26,1.76,2.02,3.04,2.02.44,0,.87-.09,1.29-.26l3.22-1.37,13.5,31.8-3.92,1.67c-4.56,1.93-7.31,6.34-7.26,11.07-1.23.68-2.39,1.47-3.46,2.36-3.17-.25-7.13-.49-10.44-.49-48.52,0-88,39.46-88,87.97,0,30.85,16.19,59.31,42.45,75.24l-22.56,30.01h-3.5c-7.53,0-13.63,6.1-13.63,13.63v9.26c0,7.53,6.1,13.63,13.63,13.63h169.77c10.08,0,18.26-8.17,18.26-18.26h0c0-10.09-8.17-18.26-18.26-18.26h-51.41l-27.42-36.47h100.71c7.04,0,12.77-5.73,12.77-12.79,0-3.37-1.32-6.57-3.73-9ZM332.25,91.09c.81-2,2.02-3.77,3.5-5.25.02-.01.03-.02.05-.03,1.38-1.36,3-2.47,4.83-3.25,1.95-.82,4-1.24,6.1-1.24,6.29,0,11.94,3.74,14.39,9.52,1.64,3.84,1.67,8.09.11,11.96-1.56,3.87-4.54,6.89-8.37,8.52-.01,0-.02,0-.03,0l-.02.02c-1.94.82-3.99,1.24-6.06,1.24-6.29,0-11.94-3.74-14.4-9.53-1.63-3.84-1.67-8.09-.1-11.96Z"/>
    <path class="st0" d="M422.45,424.57h-208.54c-53.95,0-105.39-22.46-139.96-61.94-33.11-37.81-52.7-84.64-52.7-135.36C21.26,107.32,130.86,9.07,269.78.6c-5.89-.39-11.84-.6-17.83-.6C112.8,0,0,107.5,0,240.12c0,74.13,35.25,140.41,90.64,184.46.21.17.43.34.65.51,32.74,25.86,74.01,39.87,116.53,39.87h316.7v-40.38h-102.07Z"/>
    <path class="st2" d="M403.53,352.19h-161.36c-42.01,0-82.09-16.46-108.92-45.38-25.46-27.44-40.5-61.37-40.5-98.1,0-87.24,84.9-158.7,192.52-164.86-4.56-.29-9.17-.43-13.81-.43-107.79,0-195.17,78.19-195.17,174.63,0,53.91,27.31,102.12,70.22,134.15.17.12.33.25.5.37,25.39,18.83,57.43,29,90.41,29h245.19s0-29.37,0-29.37h-79.06Z"/>
  </g>
  <g>
    <g>
      <path class="st1" d="M585.61,211.18h20.56v88.33h44.93v18.28h-65.49v-106.61Z"/>
      <path class="st1" d="M735.63,317.8h-19.04v-5.94c-6.09,5.18-13.1,7.46-20.56,7.46-10.97,0-21.32-4.87-27.87-12.49-5.79-6.7-9.44-15.84-9.44-25.89,0-21.78,16.14-38.53,36.25-38.53,8.38,0,15.84,2.74,21.63,7.46v-5.94h19.04v73.87ZM715.83,269.82c-4.11-5.48-10.66-9.14-18.28-9.14-11.58,0-19.04,9.59-19.04,20.26,0,11.57,8.38,20.1,19.49,20.1,7.46,0,14.01-3.66,17.82-9.14v-22.08Z"/>
      <path class="st1" d="M758.47,317.8v-108.13h19.8v39.6c5.79-4.57,12.79-6.85,20.87-6.85,20.1,0,36.25,16.75,36.25,38.53,0,10.05-3.66,19.19-9.44,25.89-6.55,7.61-16.9,12.49-27.87,12.49-7.46,0-14.47-2.28-20.56-7.46v5.94h-19.04ZM778.27,291.9c3.81,5.48,10.36,9.14,17.82,9.14,11.12,0,19.49-8.53,19.49-20.1,0-10.66-7.46-20.26-19.04-20.26-7.62,0-14.16,3.66-18.28,9.14v22.08Z"/>
      <path class="st1" d="M886.86,242.41c22.39,0,39.29,17.21,39.29,38.53s-16.9,38.38-39.29,38.38-39.29-17.06-39.29-38.38,16.91-38.53,39.29-38.53ZM886.86,301.04c11.58,0,19.49-8.99,19.49-20.1s-7.92-20.26-19.49-20.26-19.49,9.14-19.49,20.26,7.92,20.1,19.49,20.1Z"/>
      <path class="st1" d="M987.83,261.44c-1.37-.46-4.26-.76-7.16-.76-8.68,0-15.54,6.24-17.97,10.66v46.45h-19.8v-73.87h19.04v7.46c4.42-5.48,12.49-8.99,21.47-8.99,2.89,0,4.57.3,6.7.61l-2.29,18.43Z"/>
      <path class="st1" d="M1073.88,317.8h-19.04v-5.94c-6.09,5.18-13.1,7.46-20.56,7.46-10.97,0-21.32-4.87-27.87-12.49-5.79-6.7-9.44-15.84-9.44-25.89,0-21.78,16.14-38.53,36.25-38.53,8.38,0,15.84,2.74,21.63,7.46v-5.94h19.04v73.87ZM1054.08,269.82c-4.11-5.48-10.66-9.14-18.28-9.14-11.58,0-19.04,9.59-19.04,20.26,0,11.57,8.38,20.1,19.49,20.1,7.46,0,14.01-3.66,17.82-9.14v-22.08Z"/>
      <path class="st1" d="M1152.31,317.8c-2.59.91-8.53,1.52-12.34,1.52-11.88,0-20.56-3.96-25.59-10.66-3.81-5.03-5.48-11.57-5.48-22.08v-25.89h-20.56v-16.75h20.56v-20.56h19.8v20.56h24.37v16.75h-24.37v28.18c0,4.57.76,7.31,2.44,9.29,1.98,2.29,5.18,3.66,10.05,3.66,2.89,0,6.7-.46,8.07-.76l3.05,16.75Z"/>
      <path class="st1" d="M1203.02,242.41c22.39,0,39.29,17.21,39.29,38.53s-16.9,38.38-39.29,38.38-39.29-17.06-39.29-38.38,16.91-38.53,39.29-38.53ZM1203.02,301.04c11.58,0,19.49-8.99,19.49-20.1s-7.92-20.26-19.49-20.26-19.49,9.14-19.49,20.26,7.92,20.1,19.49,20.1Z"/>
      <path class="st1" d="M1304,261.44c-1.37-.46-4.26-.76-7.16-.76-8.68,0-15.54,6.24-17.97,10.66v46.45h-19.8v-73.87h19.04v7.46c4.42-5.48,12.49-8.99,21.47-8.99,2.89,0,4.57.3,6.7.61l-2.29,18.43Z"/>
      <path class="st1" d="M1331.41,205.09c7.16,0,12.95,5.48,12.95,12.64s-5.79,12.64-12.95,12.64-12.95-5.48-12.95-12.64,5.79-12.64,12.95-12.64ZM1341.31,317.8h-19.8v-73.87h19.8v73.87Z"/>
      <path class="st1" d="M1397.35,242.41c22.39,0,39.29,17.21,39.29,38.53s-16.9,38.38-39.29,38.38-39.29-17.06-39.29-38.38,16.91-38.53,39.29-38.53ZM1397.35,301.04c11.58,0,19.49-8.99,19.49-20.1s-7.92-20.26-19.49-20.26-19.49,9.14-19.49,20.26,7.92,20.1,19.49,20.1Z"/>
    </g>
    <g>
      <path class="st1" d="M606.17,410.13c0,20.71,15.84,36.55,36.4,36.55,13.86,0,23.91-6.7,30.16-14.77l14.16,12.64c-9.44,12.03-25.28,20.41-44.78,20.41-33.2,0-56.5-24.21-56.5-54.83s23-54.83,56.2-54.83c15.84,0,29.39,5.94,38.99,15.23l-13.25,14.01c-6.4-6.4-15.38-10.97-25.89-10.97-20.26,0-35.49,16.3-35.49,36.55Z"/>
      <path class="st1" d="M721.16,463.44h-19.8v-108.13h19.8v108.13Z"/>
      <path class="st1" d="M763.8,463.44h-19.8v-73.87h19.8v73.87ZM777.51,353.78l-18.28,24.37h-13.71l10.66-24.37h21.32Z"/>
      <path class="st1" d="M786.65,463.44v-73.87h19.04v5.94c5.64-4.57,12.64-7.46,20.87-7.46,10.2,0,19.49,4.57,25.59,11.88,4.87,5.79,7.62,13.25,7.62,25.89v37.62h-19.8v-39.14c0-7.31-1.68-11.12-4.42-13.86-2.59-2.59-6.55-4.11-11.12-4.11-8.38,0-15.23,5.33-17.97,9.14v47.97h-19.8Z"/>
      <path class="st1" d="M890.97,350.73c7.16,0,12.95,5.48,12.95,12.64s-5.79,12.64-12.95,12.64-12.95-5.48-12.95-12.64,5.79-12.64,12.95-12.64ZM900.87,463.44h-19.8v-73.87h19.8v73.87Z"/>
      <path class="st1" d="M990.73,448.36c-8.68,11.57-19.65,16.6-33.51,16.6-22.85,0-39.6-17.06-39.6-38.38s17.21-38.53,39.75-38.53c12.79,0,24.22,5.94,31.07,14.77l-14.01,12.34c-3.96-5.18-9.9-8.83-17.06-8.83-11.42,0-19.95,8.99-19.95,20.26s8.38,20.1,20.41,20.1c8.07,0,14.47-4.87,17.67-9.75l15.23,11.42Z"/>
      <path class="st1" d="M1039.16,388.05c22.39,0,39.29,17.21,39.29,38.53s-16.9,38.38-39.29,38.38-39.29-17.06-39.29-38.38,16.91-38.53,39.29-38.53ZM1039.16,446.68c11.58,0,19.49-8.99,19.49-20.1s-7.92-20.26-19.49-20.26-19.49,9.14-19.49,20.26,7.92,20.1,19.49,20.1Z"/>
      <path class="st1" d="M1188.1,463.44v-5.94c-6.09,5.18-13.1,7.46-20.56,7.46-10.97,0-21.32-4.87-27.87-12.49-5.79-6.7-9.44-15.84-9.44-25.89,0-21.78,16.14-38.53,36.25-38.53,8.07,0,15.08,2.29,20.87,6.85v-39.6h19.8v108.13h-19.04ZM1187.34,415.46c-4.11-5.48-10.66-9.14-18.28-9.14-11.58,0-19.04,9.59-19.04,20.26,0,11.57,8.38,20.1,19.49,20.1,7.46,0,14.01-3.66,17.82-9.14v-22.08Z"/>
      <path class="st1" d="M1292.88,451.71c-7.16,8.53-18.89,13.25-30.31,13.25-22.08,0-38.68-15.23-38.68-38.38,0-20.56,14.01-38.53,35.94-38.53,20.41,0,34.88,17.21,34.88,37.77,0,1.98-.15,3.96-.46,5.63h-51.17c1.07,10.36,9.44,17.51,19.95,17.51,8.38,0,15.08-4.72,18.58-8.53l11.27,11.27ZM1274.45,416.98c-.61-6.55-6.55-12.95-14.62-12.95s-14.92,6.24-15.84,12.95h30.46Z"/>
      <path class="st1" d="M1331.26,463.44h-19.8v-108.13h19.8v108.13Z"/>
      <path class="st1" d="M1449.29,420.64l38.84-63.81h14.47v106.61h-20.56v-59.4l-25.59,41.88h-14.32l-25.59-41.88v59.4h-20.56v-106.61h14.47l38.84,63.81Z"/>
      <path class="st1" d="M1597.02,463.44h-19.04v-5.94c-6.09,5.18-13.1,7.46-20.56,7.46-10.97,0-21.32-4.87-27.87-12.49-5.79-6.7-9.44-15.84-9.44-25.89,0-21.78,16.14-38.53,36.25-38.53,8.38,0,15.84,2.74,21.63,7.46v-5.94h19.04v73.87ZM1577.22,415.46c-4.11-5.48-10.66-9.14-18.28-9.14-11.58,0-19.04,9.59-19.04,20.26,0,11.57,8.38,20.1,19.49,20.1,7.46,0,14.01-3.66,17.82-9.14v-22.08Z"/>
      <path class="st1" d="M1664.79,407.08c-1.37-.46-4.26-.76-7.16-.76-8.68,0-15.54,6.24-17.97,10.66v46.45h-19.8v-73.87h19.04v7.46c4.42-5.48,12.49-8.99,21.47-8.99,2.89,0,4.57.3,6.7.61l-2.29,18.43Z"/>
    </g>
  </g>
</svg>